<?xml version="1.0" standalone="no"?>
<!DOCTYPE svg PUBLIC "-//W3C//DTD SVG 20010904//EN"
 "http://www.w3.org/TR/2001/REC-SVG-20010904/DTD/svg10.dtd">
<svg version="1.0" xmlns="http://www.w3.org/2000/svg"
 width="204.000000pt" height="90.000000pt" viewBox="0 0 204.000000 90.000000"
 preserveAspectRatio="xMidYMid meet">

<g transform="translate(0.000000,90.000000) scale(0.100000,-0.100000)"
fill="#000000" stroke="none">
<path d="M940 740 c0 -28 -3 -30 -35 -30 -24 0 -37 -6 -45 -19 -27 -51 7 -93
68 -84 l32 5 0 79 c0 46 -4 79 -10 79 -5 0 -10 -13 -10 -30z m-11 -64 c25 -30
-16 -67 -44 -40 -18 19 -19 26 -3 42 16 16 33 15 47 -2z"/>
<path d="M748 723 c-9 -21 -23 -55 -32 -75 -14 -33 -14 -38 -1 -38 8 0 15 7
15 15 0 11 11 15 40 15 27 0 43 -5 46 -15 4 -8 12 -15 19 -15 10 0 5 22 -18
75 -17 41 -36 75 -42 75 -7 0 -19 -17 -27 -37z m44 -42 c2 -7 -7 -15 -19 -17
-26 -4 -26 -4 -12 33 8 22 12 25 19 13 5 -9 10 -22 12 -29z"/>
<path d="M970 700 c0 -23 33 -90 45 -90 12 0 45 67 45 90 0 22 -19 8 -30 -22
l-12 -33 -16 33 c-15 31 -32 43 -32 22z"/>
<path d="M1075 700 c-7 -11 -1 -13 33 -10 33 2 27 -17 -8 -23 -21 -5 -30 -12
-30 -26 0 -26 28 -41 63 -34 24 5 27 10 27 42 0 20 -5 42 -12 49 -15 15 -64
16 -73 2z m53 -62 c-3 -7 -11 -13 -18 -13 -7 0 -15 6 -17 13 -3 7 4 12 17 12
13 0 20 -5 18 -12z"/>
<path d="M1180 660 c0 -27 5 -50 10 -50 6 0 10 16 10 35 0 23 6 38 16 42 20 7
34 -13 34 -49 0 -16 5 -28 10 -28 14 0 12 74 -2 88 -7 7 -27 12 -45 12 -33 0
-33 0 -33 -50z"/>
<path d="M1296 691 c-35 -38 6 -101 54 -86 25 8 26 27 3 24 -38 -3 -44 1 -41
29 3 23 7 27 31 25 35 -2 31 21 -4 25 -15 2 -32 -5 -43 -17z"/>
<path d="M1392 698 c-21 -21 -14 -66 12 -83 18 -12 29 -13 51 -5 21 8 25 14
17 22 -8 8 -15 8 -25 0 -10 -9 -18 -8 -33 3 -18 13 -16 14 24 15 34 0 42 4 42
18 0 10 -5 23 -12 30 -15 15 -61 15 -76 0z m58 -18 c0 -5 -12 -10 -26 -10 -14
0 -23 4 -19 10 3 6 15 10 26 10 10 0 19 -4 19 -10z"/>
<path d="M25 630 c3 -5 11 -10 16 -10 6 0 7 5 4 10 -3 6 -11 10 -16 10 -6 0
-7 -4 -4 -10z"/>
<path d="M840 440 c0 -81 16 -112 22 -43 2 27 8 39 21 41 14 3 17 -4 17 -37 0
-30 4 -41 15 -41 10 0 15 10 15 31 0 44 -17 69 -45 69 -21 0 -25 5 -25 30 0
17 -4 30 -10 30 -6 0 -10 -33 -10 -80z"/>
<path d="M1637 513 c-4 -3 -7 -39 -7 -80 0 -58 3 -73 15 -73 12 0 15 16 15 80
0 73 -6 91 -23 73z"/>
<path d="M720 435 c0 -43 4 -75 10 -75 6 0 10 14 10 30 0 17 4 30 9 30 6 0 18
-13 28 -30 24 -42 49 -41 28 1 -15 28 -15 32 -1 48 9 10 16 23 16 29 0 21 -32
42 -66 42 l-34 0 0 -75z m67 39 c6 -16 -12 -34 -34 -34 -7 0 -13 11 -13 25 0
18 5 25 20 25 11 0 23 -7 27 -16z"/>
<path d="M1445 468 c-12 -15 -14 -23 -7 -26 7 -2 12 -16 12 -31 0 -41 22 -66
46 -53 18 10 18 11 2 17 -21 8 -25 61 -6 67 8 3 6 11 -8 26 l-20 21 -19 -21z"/>
<path d="M956 444 c-9 -8 -16 -24 -16 -35 0 -20 33 -59 51 -59 19 0 50 21 44
31 -4 5 -13 5 -23 0 -19 -9 -42 -4 -42 10 0 5 16 9 35 9 27 0 35 4 35 18 0 40
-54 57 -84 26z m59 -14 c4 -6 -5 -10 -19 -10 -14 0 -26 5 -26 10 0 6 9 10 19
10 11 0 23 -4 26 -10z"/>
<path d="M1060 415 c0 -50 17 -67 63 -58 25 5 27 9 27 54 0 27 -4 49 -10 49
-5 0 -10 -11 -10 -24 0 -37 -10 -56 -31 -56 -15 0 -19 7 -19 40 0 22 -4 40
-10 40 -5 0 -10 -20 -10 -45z"/>
<path d="M1170 409 c0 -57 17 -66 22 -12 2 27 8 39 21 41 14 3 17 -4 17 -37 0
-55 27 -58 32 -3 2 25 8 37 18 37 10 0 16 -12 18 -37 5 -56 24 -46 20 10 l-3
47 -72 1 -73 1 0 -48z"/>
<path d="M1345 450 c-7 -11 -1 -13 33 -10 32 2 27 -18 -5 -22 -19 -2 -29 -9
-31 -24 -4 -29 19 -45 57 -38 26 6 31 11 31 36 0 45 -17 68 -50 68 -16 0 -32
-4 -35 -10z m53 -62 c-3 -7 -11 -13 -18 -13 -7 0 -15 6 -17 13 -3 7 4 12 17
12 13 0 20 -5 18 -12z"/>
<path d="M1520 441 c-16 -31 -12 -59 12 -75 30 -21 44 -20 68 4 24 24 26 53 4
74 -22 23 -71 20 -84 -3z m70 -20 c14 -28 -13 -55 -41 -41 -22 12 -25 30 -7
48 18 18 36 15 48 -7z"/>
<path d="M1684 435 c-32 -50 22 -103 72 -70 26 17 33 62 12 83 -21 21 -66 14
-84 -13z m74 -19 c5 -26 -26 -50 -45 -35 -14 12 -17 41 -6 53 13 13 48 1 51
-18z"/>
<path d="M1806 442 c-33 -37 -8 -86 43 -84 21 0 31 -4 28 -11 -2 -7 -21 -11
-41 -11 -46 2 -43 -20 3 -24 49 -5 61 11 61 83 l0 62 -39 1 c-26 1 -43 -4 -55
-16z m69 -22 c8 -26 -1 -40 -26 -40 -22 0 -34 22 -25 45 8 22 44 18 51 -5z"/>
<path d="M1916 438 c3 -13 13 -35 20 -50 15 -30 9 -58 -12 -58 -8 0 -14 -4
-14 -10 0 -12 37 -14 44 -2 17 28 53 142 45 142 -6 0 -16 -13 -22 -30 -6 -16
-14 -30 -17 -30 -3 0 -11 14 -17 30 -13 35 -38 42 -27 8z"/>
<path d="M732 237 c-58 -61 4 -157 82 -127 40 15 31 29 -16 23 -33 -5 -44 -2
-55 12 -35 49 2 102 63 90 34 -6 36 -5 25 9 -20 24 -74 20 -99 -7z"/>
<path d="M1090 226 c0 -8 -6 -16 -12 -19 -10 -4 -10 -7 0 -18 6 -7 12 -28 12
-46 0 -29 3 -33 28 -33 24 1 25 2 10 14 -22 16 -24 66 -3 66 8 0 15 5 15 10 0
6 -7 10 -15 10 -8 0 -15 7 -15 15 0 8 -4 15 -10 15 -5 0 -10 -6 -10 -14z"/>
<path d="M860 191 c-13 -26 -13 -54 2 -69 14 -14 74 -16 83 -3 8 14 -9 21 -25
11 -15 -9 -40 -3 -40 11 0 5 16 9 35 9 27 0 35 4 35 18 0 42 -70 60 -90 23z
m65 -11 c4 -6 -5 -10 -19 -10 -14 0 -26 5 -26 10 0 6 9 10 19 10 11 0 23 -4
26 -10z"/>
<path d="M970 160 c0 -58 17 -68 22 -13 2 27 8 39 21 41 14 3 17 -4 17 -37 0
-30 4 -41 15 -41 10 0 15 10 15 31 0 49 -16 69 -55 69 l-35 0 0 -50z"/>
<path d="M1156 194 c-19 -18 -21 -55 -4 -72 14 -14 74 -16 83 -3 8 14 -9 21
-25 11 -15 -9 -40 -3 -40 11 0 5 16 9 35 9 27 0 35 4 35 18 0 40 -54 57 -84
26z m59 -14 c4 -6 -5 -10 -19 -10 -14 0 -26 5 -26 10 0 6 9 10 19 10 11 0 23
-4 26 -10z"/>
<path d="M1260 158 c0 -26 5 -48 10 -48 6 0 10 16 10 36 0 27 5 37 20 41 30 8
24 22 -10 21 -29 -1 -30 -3 -30 -50z"/>
</g>
</svg>
